<svg width="24" height="24" viewBox="0 0 24 24" fill="none" xmlns="http://www.w3.org/2000/svg">
<path d="M16.4463 9.43262V14.5664L12 17.1338L7.55371 14.5664V9.43262L12 6.86523L16.4463 9.43262Z" stroke="#2F363F" stroke-width="1.5"/>
<path d="M12 16.5V12M12 12L7.5 10M12 12L16.5 9.5" stroke="#2F363F" stroke-width="1.5"/>
<path d="M12 7V1M16.5 14.5L21.5 17.5" stroke="#2F363F" stroke-width="1.5"/>
<path d="M7.5 14.5L2.5 17.5" stroke="#2F363F" stroke-width="1.5"/>
<path fill-rule="evenodd" clip-rule="evenodd" d="M18.9366 19.9951L22.3923 18V13.9468L20.8923 13.9165V17.134L18.1652 18.7084L18.9366 19.9951ZM9.01937 3.4529L12 1.73205L14.8512 3.37822L15.6048 2.08127L12 0L8.24798 2.16621L9.01937 3.4529ZM4.78341 4.16648L5.5548 5.45317L3.10767 6.86603V9.55552L1.60767 9.52515V6L4.78341 4.16648ZM14.7007 20.7087L15.4721 21.9954L12 24L8.62655 22.0524L9.38017 20.7554L12 22.268L14.7007 20.7087ZM20.8923 6.86602L18.3153 5.37823L19.069 4.08128L22.3923 6V9.94602L20.8923 9.91564V6.86602ZM5.16244 20.0523L5.91605 18.7554L3.10767 17.134V13.5563L1.60767 13.526V18L5.16244 20.0523Z" fill="#2F363F"/>
</svg>
