<svg width="24" height="24" viewBox="0 0 24 24" fill="none" xmlns="http://www.w3.org/2000/svg">
<path d="M10.7938 18.5073L10.1761 18.8226L9.58434 19.1252L9.61686 18.4786L9.65159 17.8015L9.68336 17.1665L10.2383 17.5105L10.8214 17.8709L11.3721 18.2121L10.7938 18.5073Z" fill="#2F363F" stroke="#2F363F" stroke-width="0.75" stroke-linecap="square"/>
<path d="M7.14859 12.5556C6.27308 12.5556 5.65258 12.2496 5.25308 11.7906L5.85659 10.9576C6.18809 11.2721 6.58758 11.4931 7.01259 11.4931C7.53108 11.4931 7.86259 11.2806 7.86259 10.8896C7.86259 10.4391 7.60759 10.1671 6.45158 10.1671V9.24061C7.39508 9.24061 7.69259 8.96011 7.69259 8.55211C7.69259 8.18661 7.46309 7.99111 7.05509 7.99111C6.68109 7.99111 6.40058 8.15261 6.06909 8.45011L5.40608 7.65111C5.90759 7.21761 6.46008 6.95411 7.11459 6.95411C8.26209 6.95411 9.01009 7.48961 9.01009 8.45011C9.01009 8.99411 8.69559 9.39361 8.11759 9.64011V9.67411C8.73809 9.85261 9.18009 10.2861 9.18009 10.9831C9.18009 11.9946 8.24509 12.5556 7.14859 12.5556ZM11.6895 9.99711C11.4175 9.99711 11.12 10.1501 10.9245 10.5071C11.035 11.3316 11.375 11.5696 11.715 11.5696C12.0635 11.5696 12.3695 11.3316 12.3695 10.7366C12.3695 10.1841 12.072 9.99711 11.6895 9.99711ZM11.749 12.5556C10.7035 12.5556 9.68351 11.7821 9.68351 9.86961C9.68351 7.87211 10.7375 6.95411 11.8765 6.95411C12.6075 6.95411 13.143 7.26861 13.4915 7.61711L12.7945 8.39911C12.616 8.20361 12.276 8.01661 11.97 8.01661C11.392 8.01661 10.9415 8.42461 10.8905 9.63161C11.171 9.27461 11.63 9.07061 11.953 9.07061C12.871 9.07061 13.568 9.58911 13.568 10.7366C13.568 11.8756 12.735 12.5556 11.749 12.5556ZM15.8734 12.5556C14.7004 12.5556 13.9184 11.5696 13.9184 9.73361C13.9184 7.88911 14.7004 6.95411 15.8734 6.95411C17.0464 6.95411 17.8284 7.89761 17.8284 9.73361C17.8284 11.5696 17.0464 12.5556 15.8734 12.5556ZM15.8734 11.5441C16.2644 11.5441 16.5874 11.1871 16.5874 9.73361C16.5874 8.27161 16.2644 7.97411 15.8734 7.97411C15.4739 7.97411 15.1594 8.27161 15.1594 9.73361C15.1594 11.1871 15.4739 11.5441 15.8734 11.5441ZM19.4539 9.10461C18.7569 9.10461 18.2044 8.57761 18.2044 7.86361C18.2044 7.14961 18.7569 6.62261 19.4539 6.62261C20.1594 6.62261 20.7034 7.14961 20.7034 7.86361C20.7034 8.57761 20.1594 9.10461 19.4539 9.10461ZM19.4539 8.47561C19.7939 8.47561 20.0234 8.22911 20.0234 7.86361C20.0234 7.49811 19.7939 7.25161 19.4539 7.25161C19.1224 7.25161 18.8929 7.49811 18.8929 7.86361C18.8929 8.22911 19.1224 8.47561 19.4539 8.47561Z" fill="#2F363F"/>
<mask id="path-4-outside-1_207_225" maskUnits="userSpaceOnUse" x="0" y="10" width="24" height="9" fill="black">
<rect fill="white" y="10" width="24" height="9"/>
<path fill-rule="evenodd" clip-rule="evenodd" d="M21.6509 13.0499C21.2814 12.6865 20.7494 12.3256 20.0634 11.9932V11C21.8857 11.8166 23 12.9104 23 14.1124C23 16.3111 19.2722 18.1476 14.3023 18.5878V17.6586C16.339 17.4734 18.1411 17.0488 19.5282 16.4718C20.4773 16.077 21.1904 15.6279 21.6509 15.175C22.1175 14.7161 22.2326 14.3516 22.2326 14.1124C22.2326 13.8733 22.1175 13.5088 21.6509 13.0499ZM9.18605 17.6065C7.35913 17.4005 5.74159 17 4.47178 16.4718C3.52272 16.077 2.80964 15.6279 2.34907 15.175C1.88249 14.7161 1.76744 14.3516 1.76744 14.1124C1.76744 13.8733 1.88249 13.5088 2.34907 13.0499C2.71857 12.6865 3.2506 12.3256 3.93661 11.9932V11C2.11428 11.8166 1 12.9104 1 14.1124C1 16.235 4.47416 18.02 9.18605 18.5371V17.6065Z"/>
</mask>
<path fill-rule="evenodd" clip-rule="evenodd" d="M21.6509 13.0499C21.2814 12.6865 20.7494 12.3256 20.0634 11.9932V11C21.8857 11.8166 23 12.9104 23 14.1124C23 16.3111 19.2722 18.1476 14.3023 18.5878V17.6586C16.339 17.4734 18.1411 17.0488 19.5282 16.4718C20.4773 16.077 21.1904 15.6279 21.6509 15.175C22.1175 14.7161 22.2326 14.3516 22.2326 14.1124C22.2326 13.8733 22.1175 13.5088 21.6509 13.0499ZM9.18605 17.6065C7.35913 17.4005 5.74159 17 4.47178 16.4718C3.52272 16.077 2.80964 15.6279 2.34907 15.175C1.88249 14.7161 1.76744 14.3516 1.76744 14.1124C1.76744 13.8733 1.88249 13.5088 2.34907 13.0499C2.71857 12.6865 3.2506 12.3256 3.93661 11.9932V11C2.11428 11.8166 1 12.9104 1 14.1124C1 16.235 4.47416 18.02 9.18605 18.5371V17.6065Z" fill="#2F363F"/>
<path d="M20.0634 11.9932H19.7634V12.1812L19.9326 12.2632L20.0634 11.9932ZM21.6509 13.0499L21.4406 13.2638L21.4406 13.2638L21.6509 13.0499ZM20.0634 11L20.186 10.7262L19.7634 10.5368V11H20.0634ZM14.3023 18.5878H14.0023V18.9156L14.3288 18.8867L14.3023 18.5878ZM14.3023 17.6586L14.2752 17.3598L14.0023 17.3846V17.6586H14.3023ZM19.5282 16.4718L19.413 16.1948L19.5282 16.4718ZM21.6509 15.175L21.4406 14.9611L21.6509 15.175ZM9.18605 17.6065H9.48605V17.3384L9.21967 17.3084L9.18605 17.6065ZM4.47178 16.4718L4.587 16.1948L4.47178 16.4718ZM2.34907 15.175L2.13872 15.3889L2.34907 15.175ZM2.34907 13.0499L2.55943 13.2638L2.55943 13.2638L2.34907 13.0499ZM3.93661 11.9932L4.06742 12.2632L4.23661 12.1812V11.9932H3.93661ZM3.93661 11H4.23661V10.5368L3.81394 10.7262L3.93661 11ZM9.18605 18.5371L9.15332 18.8353L9.48605 18.8719V18.5371H9.18605ZM19.9326 12.2632C20.5989 12.586 21.1009 12.9298 21.4406 13.2638L21.8613 12.836C21.4619 12.4432 20.8999 12.0652 20.1942 11.7232L19.9326 12.2632ZM19.7634 11V11.9932H20.3634V11H19.7634ZM23.3 14.1124C23.3 13.4121 22.9741 12.7673 22.4311 12.2036C21.8896 11.6412 21.1189 11.1442 20.186 10.7262L19.9407 11.2738C20.8302 11.6723 21.5278 12.1305 21.999 12.6198C22.4687 13.1075 22.7 13.6108 22.7 14.1124H23.3ZM14.3288 18.8867C16.8394 18.6643 19.0538 18.0882 20.6507 17.277C22.2249 16.4774 23.3 15.3925 23.3 14.1124H22.7C22.7 15.031 21.9112 15.9637 20.379 16.7421C18.8695 17.5088 16.7351 18.0712 14.2759 18.289L14.3288 18.8867ZM14.0023 17.6586V18.5878H14.6023V17.6586H14.0023ZM19.413 16.1948C18.06 16.7577 16.2888 17.1767 14.2752 17.3598L14.3295 17.9573C16.3892 17.77 18.2222 17.34 19.6434 16.7488L19.413 16.1948ZM21.4406 14.9611C21.0163 15.3783 20.3404 15.809 19.413 16.1948L19.6434 16.7488C20.6141 16.345 21.3644 15.8776 21.8613 15.3889L21.4406 14.9611ZM21.9326 14.1124C21.9326 14.2481 21.8687 14.54 21.4406 14.9611L21.8613 15.3889C22.3663 14.8922 22.5326 14.4552 22.5326 14.1124H21.9326ZM21.4406 13.2638C21.8687 13.6849 21.9326 13.9768 21.9326 14.1124H22.5326C22.5326 13.7697 22.3663 13.3327 21.8613 12.836L21.4406 13.2638ZM9.21967 17.3084C7.41429 17.1048 5.82531 16.7099 4.587 16.1948L4.35656 16.7488C5.65787 17.2901 7.30397 17.6961 9.15243 17.9046L9.21967 17.3084ZM4.587 16.1948C3.65959 15.809 2.98366 15.3783 2.55943 14.9611L2.13872 15.3889C2.63561 15.8776 3.38585 16.345 4.35656 16.7488L4.587 16.1948ZM2.55943 14.9611C2.13127 14.54 2.06744 14.2481 2.06744 14.1124H1.46744C1.46744 14.4552 1.63371 14.8922 2.13872 15.3889L2.55943 14.9611ZM2.06744 14.1124C2.06744 13.9768 2.13127 13.6849 2.55943 13.2638L2.13872 12.836C1.63371 13.3327 1.46744 13.7697 1.46744 14.1124H2.06744ZM2.55943 13.2638C2.89905 12.9298 3.40114 12.586 4.06742 12.2632L3.80581 11.7233C3.10006 12.0652 2.53809 12.4432 2.13872 12.836L2.55943 13.2638ZM4.23661 11.9932V11H3.63661V11.9932H4.23661ZM3.81394 10.7262C2.88107 11.1442 2.11041 11.6412 1.56885 12.2036C1.02589 12.7673 0.7 13.4121 0.7 14.1124H1.3C1.3 13.6108 1.53125 13.1075 2.00102 12.6198C2.47218 12.1305 3.16982 11.6723 4.05929 11.2738L3.81394 10.7262ZM0.7 14.1124C0.7 15.3488 1.70377 16.4027 3.18505 17.1916C4.68604 17.991 6.77239 18.574 9.15332 18.8353L9.21878 18.2389C6.88781 17.9831 4.88114 17.4151 3.46708 16.662C2.03331 15.8985 1.3 14.9986 1.3 14.1124H0.7ZM9.48605 18.5371V17.6065H8.88605V18.5371H9.48605Z" fill="#2F363F" mask="url(#path-4-outside-1_207_225)"/>
</svg>
